<?xml version="1.0" encoding="UTF-8" standalone="no"?>
<!-- Created with Inkscape (http://www.inkscape.org/) -->

<svg
   width="240mm"
   height="120mm"
   viewBox="0 0 240 120"
   version="1.1"
   id="svg8"
   inkscape:version="1.1.2 (0a00cf5339, 2022-02-04, custom)"
   sodipodi:docname="interpolation-idé.svg"
   xmlns:inkscape="http://www.inkscape.org/namespaces/inkscape"
   xmlns:sodipodi="http://sodipodi.sourceforge.net/DTD/sodipodi-0.dtd"
   xmlns="http://www.w3.org/2000/svg"
   xmlns:svg="http://www.w3.org/2000/svg"
   xmlns:rdf="http://www.w3.org/1999/02/22-rdf-syntax-ns#"
   xmlns:cc="http://creativecommons.org/ns#"
   xmlns:dc="http://purl.org/dc/elements/1.1/">
  <defs
     id="defs2" />
  <sodipodi:namedview
     id="base"
     pagecolor="#ffffff"
     bordercolor="#666666"
     borderopacity="1.0"
     inkscape:pageopacity="0.0"
     inkscape:pageshadow="2"
     inkscape:zoom="0.99437388"
     inkscape:cx="259.96258"
     inkscape:cy="182.02409"
     inkscape:document-units="mm"
     inkscape:current-layer="layer1"
     showgrid="false"
     showborder="true"
     width="200mm"
     showguides="true"
     inkscape:guide-bbox="true"
     inkscape:window-width="1501"
     inkscape:window-height="900"
     inkscape:window-x="49"
     inkscape:window-y="12"
     inkscape:window-maximized="1"
     inkscape:pagecheckerboard="0">
    <inkscape:grid
       type="xygrid"
       id="grid815"
       units="mm"
       spacingx="10"
       spacingy="10"
       empspacing="4"
       dotted="false" />
  </sodipodi:namedview>
  <metadata
     id="metadata5">
    <rdf:RDF>
      <cc:Work
         rdf:about="">
        <dc:format>image/svg+xml</dc:format>
        <dc:type
           rdf:resource="http://purl.org/dc/dcmitype/StillImage" />
        <dc:title />
      </cc:Work>
    </rdf:RDF>
  </metadata>
  <g
     inkscape:label="Layer 1"
     inkscape:groupmode="layer"
     id="layer1"
     transform="translate(0,-177)">
    <path
       style="fill:none;stroke:#000000;stroke-width:0.264583px;stroke-linecap:butt;stroke-linejoin:miter;stroke-opacity:1"
       d="M 42.641459,194.49789 42.479764,255.9955"
       id="path856" />
    <path
       style="fill:none;stroke:#000000;stroke-width:0.264583px;stroke-linecap:butt;stroke-linejoin:miter;stroke-opacity:1"
       d="m 42.479764,255.9955 87.326766,-0.61682"
       id="path858" />
    <path
       style="fill:none;stroke:#000000;stroke-width:0.264583px;stroke-linecap:butt;stroke-linejoin:miter;stroke-opacity:1"
       d="m 61.39867,224.08585 c -2.083016,0.34622 -1.342225,0.30653 0,0 z"
       id="path895" />
    <path
       style="fill:none;stroke:#000000;stroke-width:0.264583px;stroke-linecap:butt;stroke-linejoin:miter;stroke-opacity:1"
       d="m 82.05694,224.8092 c 1.904796,0.13516 0.06927,-0.97672 0.354102,-1.34079 0.1182,-0.15108 0.86277,-0.1875 0.605192,0.0497 -0.619386,0.57041 -1.609375,0.0928 -1.609375,-0.51532"
       id="path897" />
    <path
       style="fill:none;stroke:#000000;stroke-width:0.264583px;stroke-linecap:butt;stroke-linejoin:miter;stroke-opacity:1"
       d="m 110.53328,212.32181 c 0.63197,0.53577 2.20439,-0.29193 2.56777,-0.0965"
       id="path899" />
    <path
       style="fill:none;stroke:#000000;stroke-width:0.264583px;stroke-linecap:butt;stroke-linejoin:miter;stroke-opacity:1"
       d="m 61.39867,224.08585 c 0.146207,0.4059 0.245187,0.83206 0.438624,1.21769 0.01275,0.0254 2.618282,0 3.584403,0 0.928187,0 2.291731,-0.51001 3.156416,-0.79824 0.479388,-0.15979 1.096941,0.0999 1.596482,0 2.750868,-0.55017 5.552184,-0.79824 8.360897,-0.79824 0.468315,0 1.560269,-0.21025 1.955895,0 0.01662,0.009 0.900152,0.40648 0.936673,0.19505 0.05104,-0.29548 -0.01413,-0.59955 -0.02119,-0.89932"
       id="path903" />
    <path
       style="fill:none;stroke:#000000;stroke-width:0.264583px;stroke-linecap:butt;stroke-linejoin:miter;stroke-opacity:1"
       d="m 81.406869,223.00279 c 0.39969,0.24337 0.766435,0.55177 1.199071,0.73012 0.07268,0.03 -0.05883,-0.18369 0,-0.23583 0.06638,-0.0588 0.181938,0.028 0.266081,0 0.522732,-0.17424 0.950849,-0.55955 1.411864,-0.6926 0.819004,-0.23637 1.550659,-0.36771 2.306124,-0.74545 0.719709,-0.35985 3.126952,-0.58218 3.991205,-0.79824 1.040146,-0.26003 2.281492,-0.93788 3.459044,-1.3304 0.96503,-0.32168 2.006676,-0.4911 2.901614,-0.78561 0.740878,-0.24381 1.560467,-0.85323 2.384628,-1.05927 0.82399,-0.206 1.86896,-0.40232 2.6608,-0.79824 0.41238,-0.20618 0.90775,-0.65735 1.33041,-0.79824 0.16828,-0.0561 0.3735,0.0793 0.53216,0 0.22437,-0.11219 0.30778,-0.41997 0.53216,-0.53216 0.20552,-0.10276 1.6762,-0.30594 2.12864,-0.53216 0.33733,-0.16867 4.51493,-1.78447 4.50016,-1.86256 -0.0824,-0.43531 -0.31837,-0.82689 -0.47755,-1.24034"
       id="path905" />
    <text
       xml:space="preserve"
       style="font-style:normal;font-weight:normal;font-size:9.31279px;line-height:1.25;font-family:sans-serif;fill:#000000;fill-opacity:1;stroke:none;stroke-width:0.23282"
       x="132.29547"
       y="250.80894"
       id="text3043"
       transform="scale(0.98186114,1.018474)"><tspan
         sodipodi:role="line"
         id="tspan3041"
         style="stroke-width:0.23282"
         x="132.29547"
         y="250.80894">$x$</tspan></text>
    <text
       xml:space="preserve"
       style="font-style:normal;font-weight:normal;font-size:5.62787px;line-height:1.25;font-family:sans-serif;fill:#000000;fill-opacity:1;stroke:none;stroke-width:0.140697"
       x="39.059406"
       y="163.76669"
       id="text7743"
       transform="scale(0.85480541,1.1698569)"><tspan
         sodipodi:role="line"
         id="tspan7741"
         style="stroke-width:0.140697"
         x="39.059406"
         y="163.76669">$y$</tspan></text>
    <text
       xml:space="preserve"
       style="font-style:normal;font-weight:normal;font-size:7.6758px;line-height:1.25;font-family:sans-serif;fill:#000000;fill-opacity:1;stroke:none;stroke-width:0.191895"
       x="126.39041"
       y="197.40639"
       id="text3564"
       transform="scale(0.94036628,1.0634154)"><tspan
         sodipodi:role="line"
         id="tspan3562"
         style="stroke-width:0.191895"
         x="126.39041"
         y="197.40639">$p(x)$</tspan></text>
    <path
       style="fill:none;stroke:#000000;stroke-width:0.264583px;stroke-linecap:butt;stroke-linejoin:miter;stroke-opacity:1"
       d="m 61.39867,224.08585 c -0.416845,0.0195 -0.833688,0.0389 -1.250531,0.0584 0,-0.0183 -0.0089,-0.0389 0,-0.055 0.27905,-0.50511 0.194,0.71798 1.250531,-0.003 0.644224,-0.43986 0.764331,-1.41989 1.395021,-1.87894 0.401529,-0.29225 0.594874,-0.41808 0.82736,-0.77556 0.05179,-0.0796 0.193321,-0.32551 0.133202,-0.25195 -0.789188,0.96556 -1.570389,1.93763 -2.355583,2.90645"
       id="path5257" />
    <path
       style="fill:none;stroke:#000000;stroke-width:0.264583px;stroke-linecap:butt;stroke-linejoin:miter;stroke-opacity:1"
       d="m 60.148139,224.14425 c 0.463642,-0.72312 0.895196,-1.46785 1.390927,-2.16936 0.355727,-0.50339 1.09959,0.55806 1.659739,0.8153 0.923105,0.42393 0.579144,0.74585 0.952149,1.56421 0.06387,0.14012 0.352758,0.17386 0.438536,0.22047 0.277352,0.15069 0.60067,0.4477 0.822325,0.68239 0.05273,0.0558 0.211706,0.20725 0.138464,0.18415 -1.388316,-0.43787 -2.76774,-0.90344 -4.151609,-1.35516"
       id="path5261" />
    <path
       style="fill:none;stroke:#000000;stroke-width:0.264583px;stroke-linecap:butt;stroke-linejoin:miter;stroke-opacity:1"
       d="m 81.406869,223.00279 c 0.267539,-0.12248 0.925092,-0.0999 0.802614,-0.36743 -0.122476,-0.26754 -0.610002,0.14499 -0.802614,0.36743 -0.786855,0.90869 -0.568544,1.28612 -1.042117,1.91933 -0.03475,0.0465 -0.558972,0.68234 -0.49635,0.66499 0.746149,-0.20661 1.459024,-0.51861 2.188538,-0.77791"
       id="path5265" />
    <path
       style="fill:none;stroke:#000000;stroke-width:0.264583px;stroke-linecap:butt;stroke-linejoin:miter;stroke-opacity:1"
       d="m 81.406859,223.00279 c -0.360918,-0.0158 -1.066978,-0.40825 -1.082755,-0.0473 -0.01577,0.36092 0.880351,-0.2519 1.082755,0.0473 0.346297,0.51198 -0.435105,1.64742 0.269084,2.14897 0.259593,0.1849 0.857689,0.90521 0.73557,0.61083 -0.129921,-0.31319 -0.236384,-0.63559 -0.354573,-0.95339"
       id="path5267" />
    <path
       style="fill:none;stroke:#000000;stroke-width:0.264583px;stroke-linecap:butt;stroke-linejoin:miter;stroke-opacity:1"
       d="m 113.10105,212.22531 c 0.20817,-0.0691 0.69356,0.001 0.62451,-0.20714 -0.069,-0.20817 -0.49803,0.028 -0.62451,0.20714 -0.31457,0.44562 -0.36187,1.04214 -0.66702,1.49426 -0.10857,0.16084 -0.4631,0.61998 -0.36908,0.45022 0.35582,-0.64248 0.69073,-1.29632 1.0361,-1.94448"
       id="path5269" />
    <path
       style="fill:none;stroke:#000000;stroke-width:0.264583px;stroke-linecap:butt;stroke-linejoin:miter;stroke-opacity:1"
       d="m 110.53328,212.32181 c 0.22905,-0.44431 0.20602,-1.19734 0.68716,-1.33292 0.45192,-0.12735 0.55965,0.75412 0.84646,1.12586 1.21732,1.57783 5.40116,7.59024 1.03415,0.11056"
       id="path5271" />
  </g>
</svg>
