<?xml version="1.0" encoding="UTF-8" standalone="no"?>
<!-- Created with Inkscape (http://www.inkscape.org/) -->

<svg
   width="78.434647mm"
   height="51.940456mm"
   viewBox="0 0 78.434647 51.940456"
   version="1.1"
   id="svg8"
   inkscape:version="1.1.2 (0a00cf5339, 2022-02-04, custom)"
   sodipodi:docname="illustration.svg"
   xmlns:inkscape="http://www.inkscape.org/namespaces/inkscape"
   xmlns:sodipodi="http://sodipodi.sourceforge.net/DTD/sodipodi-0.dtd"
   xmlns="http://www.w3.org/2000/svg"
   xmlns:svg="http://www.w3.org/2000/svg"
   xmlns:rdf="http://www.w3.org/1999/02/22-rdf-syntax-ns#"
   xmlns:cc="http://creativecommons.org/ns#"
   xmlns:dc="http://purl.org/dc/elements/1.1/">
  <defs
     id="defs2" />
  <sodipodi:namedview
     id="base"
     pagecolor="#ffffff"
     bordercolor="#666666"
     borderopacity="1.0"
     inkscape:pageopacity="0.0"
     inkscape:pageshadow="2"
     inkscape:zoom="1.4142136"
     inkscape:cx="131.16831"
     inkscape:cy="88.388348"
     inkscape:document-units="mm"
     inkscape:current-layer="layer1"
     showgrid="false"
     showborder="true"
     width="200mm"
     showguides="true"
     inkscape:guide-bbox="true"
     inkscape:window-width="1501"
     inkscape:window-height="900"
     inkscape:window-x="49"
     inkscape:window-y="12"
     inkscape:window-maximized="1"
     inkscape:pagecheckerboard="0">
    <inkscape:grid
       type="xygrid"
       id="grid815"
       units="mm"
       spacingx="10"
       spacingy="10"
       empspacing="4"
       dotted="false"
       originx="-45.405754"
       originy="-19.27756" />
  </sodipodi:namedview>
  <metadata
     id="metadata5">
    <rdf:RDF>
      <cc:Work
         rdf:about="">
        <dc:format>image/svg+xml</dc:format>
        <dc:type
           rdf:resource="http://purl.org/dc/dcmitype/StillImage" />
      </cc:Work>
    </rdf:RDF>
  </metadata>
  <g
     inkscape:label="Layer 1"
     inkscape:groupmode="layer"
     id="layer1"
     transform="translate(-45.405756,-196.27756)">
    <rect
       style="fill:none;stroke:#000000;stroke-width:0.264583;stroke-opacity:1"
       id="rect1266"
       width="78.170067"
       height="51.675873"
       x="45.538048"
       y="196.40985" />
    <ellipse
       style="fill:none;fill-opacity:1;stroke:#000000;stroke-width:0.264583;stroke-opacity:1"
       id="path1353"
       cx="78.965797"
       cy="222.46825"
       rx="15.437308"
       ry="16.141985" />
    <ellipse
       style="fill:none;fill-opacity:1;stroke:#000000;stroke-width:0.264583;stroke-opacity:1"
       id="path1377"
       cx="79.016663"
       cy="223.14853"
       rx="22.717758"
       ry="22.707872" />
    <ellipse
       style="fill:none;fill-opacity:1;stroke:#000000;stroke-width:0.264583;stroke-opacity:1"
       id="path1379"
       cx="98.883469"
       cy="229.45285"
       rx="9.0909338"
       ry="10.941713" />
    <text
       xml:space="preserve"
       style="font-style:normal;font-weight:normal;font-size:6.24647px;line-height:1.25;font-family:sans-serif;fill:#000000;fill-opacity:1;stroke:none;stroke-width:0.156162"
       x="80.888794"
       y="189.93762"
       id="text3385"
       transform="scale(0.92098026,1.0857996)"><tspan
         sodipodi:role="line"
         id="tspan3383"
         style="stroke-width:0.156162"
         x="80.888794"
         y="189.93762">$R$</tspan></text>
    <text
       xml:space="preserve"
       style="font-style:normal;font-weight:normal;font-size:6.79708px;line-height:1.25;font-family:sans-serif;fill:#000000;fill-opacity:1;stroke:none;stroke-width:0.169927"
       x="73.848671"
       y="217.03706"
       id="text12083"
       transform="scale(0.99284956,1.0072019)"><tspan
         sodipodi:role="line"
         id="tspan12081"
         style="stroke-width:0.169927"
         x="73.848671"
         y="217.03706">$K$</tspan></text>
    <text
       xml:space="preserve"
       style="font-style:normal;font-weight:normal;font-size:10.5833px;line-height:1.25;font-family:sans-serif;fill:#000000;fill-opacity:1;stroke:none;stroke-width:0.264583"
       x="75.828819"
       y="220.08759"
       id="text13473"><tspan
         sodipodi:role="line"
         id="tspan13471"
         style="stroke-width:0.264583"
         x="75.828819"
         y="220.08759" /></text>
    <text
       xml:space="preserve"
       style="font-style:normal;font-weight:normal;font-size:6.04175px;line-height:1.25;font-family:sans-serif;fill:#000000;fill-opacity:1;stroke:none;stroke-width:0.151044"
       x="108.56621"
       y="215.96698"
       id="text17689"
       transform="scale(0.92746353,1.0782095)"><tspan
         sodipodi:role="line"
         id="tspan17687"
         style="stroke-width:0.151044"
         x="108.56621"
         y="215.96698">$F$</tspan></text>
    <path
       style="fill:#cccccc;stroke:#000000;stroke-width:0.353553"
       d="m 198.24936,165.78543 c -2.61333,-0.38257 -5.03145,-1.10501 -7.68589,-2.29625 l -2.11299,-0.94826 2.15808,-2.307 c 5.12645,-5.48019 9.84065,-12.22916 13.34942,-19.11139 2.04692,-4.01491 4.99769,-11.06613 5.53418,-13.22459 0.24648,-0.99168 0.87211,-1.35292 0.87211,-0.50357 0,0.60074 1.26945,1.76095 2.74004,2.50423 1.11824,0.56519 1.14904,0.64213 1.14904,2.86978 0,1.25896 -0.13381,2.28902 -0.29736,2.28902 -0.16355,0 -1.07837,-0.23693 -2.03293,-0.52651 -0.95456,-0.28957 -1.77534,-0.52822 -1.82396,-0.53033 -0.0486,-0.002 -0.0884,0.54554 -0.0884,1.21699 0,1.10957 0.12083,1.25438 1.32583,1.58902 0.7292,0.20251 1.6838,0.36909 2.12132,0.37017 0.69205,0.002 0.79549,0.18588 0.79549,1.41619 0,1.17851 0.11786,1.41421 0.70711,1.41421 0.58999,0 0.70711,-0.2357 0.70711,-1.42305 0,-1.30204 0.0913,-1.44131 1.07328,-1.63771 0.59031,-0.11806 1.5449,-0.65521 2.12132,-1.19367 0.88945,-0.83086 1.04804,-1.24459 1.04804,-2.73403 0,-2.11221 -0.7422,-3.20771 -2.80274,-4.13689 l -1.4399,-0.6493 v -2.2444 c 0,-1.23442 0.10086,-2.2444 0.22414,-2.2444 0.12328,0 0.84026,0.18459 1.59327,0.4102 1.55304,0.4653 1.57613,0.45543 1.89342,-0.80878 0.20388,-0.81232 0.0912,-0.97682 -0.9079,-1.3251 -0.62738,-0.2187 -1.51469,-0.39764 -1.97181,-0.39764 -0.68777,0 -0.83112,-0.18295 -0.83112,-1.06066 0,-0.82496 -0.15714,-1.06066 -0.70711,-1.06066 -0.54997,0 -0.70711,0.2357 -0.70711,1.06066 0,0.72221 -0.17482,1.06066 -0.54788,1.06066 -0.30134,0 -1.03998,0.25447 -1.64142,0.56548 -1.08418,0.56065 -1.09158,0.55838 -0.8647,-0.26516 0.12586,-0.45686 0.54172,-2.58074 0.92412,-4.71974 1.71611,-9.59923 1.85949,-17.61533 0.51119,-28.58097 l -0.25384,-2.064465 2.26209,1.14058 c 8.62197,4.347324 15.25364,12.336605 18.62162,22.433785 1.48362,4.44788 2.84935,11.84404 2.18704,11.84404 -0.13318,0 -0.66159,0.41944 -1.17424,0.93209 -0.77866,0.77867 -0.93209,1.24874 -0.93209,2.85563 0,1.67934 0.13903,2.06256 1.09523,3.01876 1.06447,1.06447 1.08842,1.1589 0.85248,3.36201 -0.23289,2.17474 -0.27736,2.25808 -1.09523,2.05281 -0.77824,-0.19532 -0.85248,-0.10714 -0.85248,1.01265 0,0.75299 0.21681,1.34794 0.56153,1.54085 0.49861,0.27904 0.4379,0.68321 -0.54189,3.60769 -4.692,14.0047 -15.30778,23.74886 -27.71078,25.43558 -3.11187,0.42319 -4.46613,0.42163 -7.40474,-0.009 z m 26.96415,-31.08159 v -3.88909 h 3.0052 3.00521 v -1.06066 -1.06066 h -3.00521 -3.0052 v -3.0052 -3.0052 h 3.18198 3.18198 v -1.06066 -1.06066 h -4.24264 -4.24264 v 9.01561 9.01561 h 1.06066 1.06066 z"
       id="path881"
       transform="matrix(0.26458333,0,0,0.26458333,45.405756,196.27756)" />
  </g>
</svg>
